<svg xmlns="http://www.w3.org/2000/svg" viewBox="0 0 960 480"><rect width="960" height="480" fill="#eaf0f0"/><circle cx="470" cy="236" r="173" fill="#dce7e4"/><g transform="rotate(-8 410 240)"><rect x="281" y="95" width="250" height="300" rx="10" fill="#fcfdf9" stroke="#96afa5" stroke-width="3"/><path d="M320 145h130m-130 43h170m-170 43h135m-135 43h155m-155 43h112" stroke="#b7c9bd" stroke-width="7"/></g><path d="m566 138 20 8-83 211-24 27-1-36z" fill="#54816b"/><path d="m478 348 25 9-24 27z" fill="#d6b58d"/><rect x="645" y="245" width="80" height="91" rx="13" fill="#a8c2b3"/><path d="M725 266h17c32 0 32 48 0 48h-17" fill="none" stroke="#a8c2b3" stroke-width="9"/><text x="40" y="442" font-family="sans-serif" font-size="15" fill="#6c877a" letter-spacing="4">KEEP PRACTICING / ILLUSTRATION</text></svg>
